<?xml version="1.0" encoding="UTF-8"?>
<svg xmlns="http://www.w3.org/2000/svg"><g style="stroke: #000000;fill:none;stroke-width: 0.398;stroke-linejoin:miter;stroke-linecap:butt;stroke-miterlimit: 10;" id="p75_s22893"><path d="M99.2130,71.8030 L312.1300,71.8030"/></g><g style="stroke: #000000;fill:none;stroke-width: 0.398;stroke-linejoin:miter;stroke-linecap:butt;stroke-miterlimit: 10;" id="p75_s22894"><path d="M312.1300,71.8030 L525.0470,71.8030"/></g><g style="stroke: #000000;fill:none;stroke-width: 0.436;stroke-linejoin:miter;stroke-linecap:butt;stroke-miterlimit: 10;" id="p75_s23226"><path d="M315.4150,601.1020 L351.1340,601.1020"/></g><g style="stroke: #FF0000;fill:none;stroke-width: 1;stroke-linejoin:miter;stroke-linecap:butt;stroke-miterlimit: 10;" id="p75_s23325"><path d="M389.1940,130.3400 L437.1360,130.3400 L437.1360,118.7130 L389.1940,118.7130 L389.1940,130.3400 Z"/></g><g style="stroke: #00FF00;fill:none;stroke-width: 1;stroke-linejoin:miter;stroke-linecap:butt;stroke-miterlimit: 10;" id="p75_s23326"><path d="M187.2290,243.9440 L220.8530,243.9440 L220.8530,234.4390 L187.2290,234.4390 L187.2290,243.9440 Z"/></g><g style="stroke: #00FF00;fill:none;stroke-width: 1;stroke-linejoin:miter;stroke-linecap:butt;stroke-miterlimit: 10;" id="p75_s23327"><path d="M486.8220,243.9440 L522.2500,243.9440 L522.2500,234.4390 L486.8220,234.4390 L486.8220,243.9440 Z"/></g><g style="stroke: #FF0000;fill:none;stroke-width: 1;stroke-linejoin:miter;stroke-linecap:butt;stroke-miterlimit: 10;" id="p75_s23328"><path d="M250.5490,271.0570 L279.6980,271.0570 L279.6980,259.4160 L250.5490,259.4160 L250.5490,271.0570 Z"/></g><g style="stroke: #FF0000;fill:none;stroke-width: 1;stroke-linejoin:miter;stroke-linecap:butt;stroke-miterlimit: 10;" id="p75_s23329"><path d="M221.0580,287.4920 L250.8160,287.4920 L250.8160,275.8660 L221.0580,275.8660 L221.0580,287.4920 Z"/></g><g style="stroke: #00FF00;fill:none;stroke-width: 1;stroke-linejoin:miter;stroke-linecap:butt;stroke-miterlimit: 10;" id="p75_s23330"><path d="M382.8970,334.6770 L421.9350,334.6770 L421.9350,325.1710 L382.8970,325.1710 L382.8970,334.6770 Z"/></g><g style="stroke: #00FF00;fill:none;stroke-width: 1;stroke-linejoin:miter;stroke-linecap:butt;stroke-miterlimit: 10;" id="p75_s23331"><path d="M371.0730,359.6690 L408.0070,359.6690 L408.0070,350.1640 L371.0730,350.1640 L371.0730,359.6690 Z"/></g><g style="stroke: #00FF00;fill:none;stroke-width: 1;stroke-linejoin:miter;stroke-linecap:butt;stroke-miterlimit: 10;" id="p75_s23332"><path d="M413.8850,359.6690 L436.6650,359.6690 L436.6650,350.1640 L413.8850,350.1640 L413.8850,359.6690 Z"/></g><g style="stroke: #FF0000;fill:none;stroke-width: 1;stroke-linejoin:miter;stroke-linecap:butt;stroke-miterlimit: 10;" id="p75_s23333"><path d="M269.5080,433.9670 L322.8320,433.9670 L322.8320,424.4610 L269.5080,424.4610 L269.5080,433.9670 Z"/></g><g style="stroke: #FF0000;fill:none;stroke-width: 1;stroke-linejoin:miter;stroke-linecap:butt;stroke-miterlimit: 10;" id="p75_s23334"><path d="M357.2130,452.5230 L413.2570,452.5230 L413.2570,440.8960 L357.2130,440.8960 L357.2130,452.5230 Z"/></g><g style="stroke: #FF0000;fill:none;stroke-width: 1;stroke-linejoin:miter;stroke-linecap:butt;stroke-miterlimit: 10;" id="p75_s23335"><path d="M436.1920,452.5230 L457.7210,452.5230 L457.7210,440.8960 L436.1920,440.8960 L436.1920,452.5230 Z"/></g><g style="stroke: #FF0000;fill:none;stroke-width: 1;stroke-linejoin:miter;stroke-linecap:butt;stroke-miterlimit: 10;" id="p75_s23336"><path d="M161.6710,510.3850 L198.5070,510.3850 L198.5070,498.7590 L161.6710,498.7590 L161.6710,510.3850 Z"/></g><g style="stroke: #FF0000;fill:none;stroke-width: 1;stroke-linejoin:miter;stroke-linecap:butt;stroke-miterlimit: 10;" id="p75_s23337"><path d="M221.1120,510.3850 L245.2350,510.3850 L245.2350,498.7590 L221.1120,498.7590 L221.1120,510.3850 Z"/></g><g style="stroke: #FF0000;fill:none;stroke-width: 1;stroke-linejoin:miter;stroke-linecap:butt;stroke-miterlimit: 10;" id="p75_s23338"><path d="M206.0130,686.1930 L230.2920,686.1930 L230.2920,675.4120 L206.0130,675.4120 L206.0130,686.1930 Z"/></g><g style="stroke: #FF0000;fill:none;stroke-width: 1;stroke-linejoin:miter;stroke-linecap:butt;stroke-miterlimit: 10;" id="p75_s23339"><path d="M146.4340,712.7000 L176.1370,712.7000 L176.1370,701.0730 L146.4340,701.0730 L146.4340,712.7000 Z"/></g><g style="stroke: #FF0000;fill:none;stroke-width: 1;stroke-linejoin:miter;stroke-linecap:butt;stroke-miterlimit: 10;" id="p75_s23340"><path d="M166.8930,772.1560 L196.5680,772.1560 L196.5680,759.2690 L166.8930,759.2690 L166.8930,772.1560 Z"/></g></svg>
