<?xml version="1.0" encoding="UTF-8"?>
<svg xmlns="http://www.w3.org/2000/svg"><g style="stroke: #000000;fill:none;stroke-width: 0.398;stroke-linejoin:miter;stroke-linecap:butt;stroke-miterlimit: 10;" id="p37_s11258"><path d="M99.2130,71.8030 L312.1300,71.8030"/></g><g style="stroke: #000000;fill:none;stroke-width: 0.398;stroke-linejoin:miter;stroke-linecap:butt;stroke-miterlimit: 10;" id="p37_s11259"><path d="M312.1300,71.8030 L525.0470,71.8030"/></g><g style="stroke: #000000;fill:none;stroke-width: 0.436;stroke-linejoin:miter;stroke-linecap:butt;stroke-miterlimit: 10;" id="p37_s11368"><path d="M322.5410,318.6840 L411.9970,318.6840"/></g><g style="stroke: #000000;fill:none;stroke-width: 0.436;stroke-linejoin:miter;stroke-linecap:butt;stroke-miterlimit: 10;" id="p37_s11499"><path d="M275.9100,505.1140 L285.8650,505.1140"/></g><g style="stroke: #00FF00;fill:none;stroke-width: 1;stroke-linejoin:miter;stroke-linecap:butt;stroke-miterlimit: 10;" id="p37_s11637"><path d="M461.9620,289.6280 L502.6670,289.6280 L502.6670,280.1220 L461.9620,280.1220 L461.9620,289.6280 Z"/></g><g style="stroke: #00FF00;fill:none;stroke-width: 1;stroke-linejoin:miter;stroke-linecap:butt;stroke-miterlimit: 10;" id="p37_s11638"><path d="M224.2730,421.9270 L264.9780,421.9270 L264.9780,412.4210 L224.2730,412.4210 L224.2730,421.9270 Z"/></g><g style="stroke: #FF0000;fill:none;stroke-width: 1;stroke-linejoin:miter;stroke-linecap:butt;stroke-miterlimit: 10;" id="p37_s11639"><path d="M317.5420,425.1130 L347.7090,425.1130 L347.7090,411.7550 L317.5420,411.7550 L317.5420,425.1130 Z"/></g><g style="stroke: #FF0000;fill:none;stroke-width: 1;stroke-linejoin:miter;stroke-linecap:butt;stroke-miterlimit: 10;" id="p37_s11640"><path d="M432.9130,425.1130 L500.8930,425.1130 L500.8930,411.7550 L432.9130,411.7550 L432.9130,425.1130 Z"/></g><g style="stroke: #FF0000;fill:none;stroke-width: 1;stroke-linejoin:miter;stroke-linecap:butt;stroke-miterlimit: 10;" id="p37_s11641"><path d="M164.1510,441.0890 L234.0740,441.0890 L234.0740,428.1900 L164.1510,428.1900 L164.1510,441.0890 Z"/></g><g style="stroke: #FF0000;fill:none;stroke-width: 1;stroke-linejoin:miter;stroke-linecap:butt;stroke-miterlimit: 10;" id="p37_s11642"><path d="M252.3750,755.7210 L320.3950,755.7210 L320.3950,744.0950 L252.3750,744.0950 L252.3750,755.7210 Z"/></g></svg>
