<?xml version="1.0" encoding="UTF-8"?>
<svg xmlns="http://www.w3.org/2000/svg"><g style="stroke: #000000;fill:none;stroke-width: 0.398;stroke-linejoin:miter;stroke-linecap:butt;stroke-miterlimit: 10;" id="p82_s25931"><path d="M70.8660,71.8030 L283.7830,71.8030"/></g><g style="stroke: #000000;fill:none;stroke-width: 0.398;stroke-linejoin:miter;stroke-linecap:butt;stroke-miterlimit: 10;" id="p82_s25932"><path d="M283.7830,71.8030 L496.7000,71.8030"/></g><g style="stroke: #000000;fill:none;stroke-width: 0.868;stroke-linejoin:miter;stroke-linecap:butt;stroke-miterlimit: 10;" id="p82_s26056"><path d="M108.4820,275.7970 L459.0840,275.7970"/></g><g style="stroke: #000000;fill:none;stroke-width: 0.542;stroke-linejoin:miter;stroke-linecap:butt;stroke-miterlimit: 10;" id="p82_s26067"><path d="M108.4820,294.9810 L459.0840,294.9810"/></g><g style="stroke: #000000;fill:none;stroke-width: 0.868;stroke-linejoin:miter;stroke-linecap:butt;stroke-miterlimit: 10;" id="p82_s26116"><path d="M108.4820,409.0100 L459.0840,409.0100"/></g><g style="stroke: #000000;fill:none;stroke-width: 0.398;stroke-linejoin:miter;stroke-linecap:butt;stroke-miterlimit: 10;" id="p82_s26314"><path d="M70.8660,736.6610 L241.1970,736.6610"/></g><g style="stroke: #FF0000;fill:none;stroke-width: 1;stroke-linejoin:miter;stroke-linecap:butt;stroke-miterlimit: 10;" id="p82_s26366"><path d="M111.7850,215.0980 L118.5090,215.0980 L118.5090,201.8860 L111.7850,201.8860 L111.7850,215.0980 Z"/></g><g style="stroke: #FF0000;fill:none;stroke-width: 1;stroke-linejoin:miter;stroke-linecap:butt;stroke-miterlimit: 10;" id="p82_s26367"><path d="M323.8380,264.4040 L374.9480,264.4040 L374.9480,252.7770 L323.8380,252.7770 L323.8380,264.4040 Z"/></g><g style="stroke: #FF0000;fill:none;stroke-width: 1;stroke-linejoin:miter;stroke-linecap:butt;stroke-miterlimit: 10;" id="p82_s26368"><path d="M290.0960,485.2650 L386.8920,485.2650 L386.8920,472.3660 L290.0960,472.3660 L290.0960,485.2650 Z"/></g><g style="stroke: #FF0000;fill:none;stroke-width: 1;stroke-linejoin:miter;stroke-linecap:butt;stroke-miterlimit: 10;" id="p82_s26369"><path d="M383.5320,533.9640 L435.2020,533.9640 L435.2020,522.3380 L383.5320,522.3380 L383.5320,533.9640 Z"/></g><g style="stroke: #FF0000;fill:none;stroke-width: 1;stroke-linejoin:miter;stroke-linecap:butt;stroke-miterlimit: 10;" id="p82_s26370"><path d="M337.9120,692.6810 L390.0530,692.6810 L390.0530,681.0550 L337.9120,681.0550 L337.9120,692.6810 Z"/></g><g style="stroke: #FF0000;fill:none;stroke-width: 1;stroke-linejoin:miter;stroke-linecap:butt;stroke-miterlimit: 10;" id="p82_s26371"><path d="M438.3470,709.7220 L489.4570,709.7220 L489.4570,696.8230 L438.3470,696.8230 L438.3470,709.7220 Z"/></g></svg>
