<?xml version="1.0" encoding="UTF-8"?>
<svg xmlns="http://www.w3.org/2000/svg"><g style="stroke: #000000;fill:none;stroke-width: 0.398;stroke-linejoin:miter;stroke-linecap:butt;stroke-miterlimit: 10;" id="p25_s7267"><path d="M99.2130,71.8030 L312.1300,71.8030"/></g><g style="stroke: #000000;fill:none;stroke-width: 0.398;stroke-linejoin:miter;stroke-linecap:butt;stroke-miterlimit: 10;" id="p25_s7268"><path d="M312.1300,71.8030 L525.0470,71.8030"/></g><clipPath id="p25_s7511"><path d="M226.9640,709.1370 L397.2796,709.1370 L397.2796,611.5292 L226.9640,611.5292 L226.9640,709.1370 Z"/></clipPath><g style="stroke: #00FF00;fill:none;stroke-width: 1;stroke-linejoin:miter;stroke-linecap:butt;stroke-miterlimit: 10;" id="p25_s7532"><path d="M265.6440,237.5910 L312.6730,237.5910 L312.6730,228.0850 L265.6440,228.0850 L265.6440,237.5910 Z"/></g><g style="stroke: #FF0000;fill:none;stroke-width: 1;stroke-linejoin:miter;stroke-linecap:butt;stroke-miterlimit: 10;" id="p25_s7533"><path d="M97.8150,273.1880 L164.9510,273.1880 L164.9510,260.2880 L97.8150,260.2880 L97.8150,273.1880 Z"/></g><g style="stroke: #00FF00;fill:none;stroke-width: 1;stroke-linejoin:miter;stroke-linecap:butt;stroke-miterlimit: 10;" id="p25_s7534"><path d="M181.8770,286.8960 L228.9060,286.8960 L228.9060,277.3900 L181.8770,277.3900 L181.8770,286.8960 Z"/></g><g style="stroke: #FF0000;fill:none;stroke-width: 1;stroke-linejoin:miter;stroke-linecap:butt;stroke-miterlimit: 10;" id="p25_s7535"><path d="M208.1630,439.2330 L234.5140,439.2330 L234.5140,427.6060 L208.1630,427.6060 L208.1630,439.2330 Z"/></g><g style="stroke: #FF0000;fill:none;stroke-width: 1;stroke-linejoin:miter;stroke-linecap:butt;stroke-miterlimit: 10;" id="p25_s7536"><path d="M160.3750,455.6680 L210.4300,455.6680 L210.4300,444.0410 L160.3750,444.0410 L160.3750,455.6680 Z"/></g><g style="stroke: #00FF00;fill:none;stroke-width: 1;stroke-linejoin:miter;stroke-linecap:butt;stroke-miterlimit: 10;" id="p25_s7537"><path d="M116.4110,521.5880 L163.4410,521.5880 L163.4410,512.0820 L116.4110,512.0820 L116.4110,521.5880 Z"/></g><g style="stroke: #00FF00;fill:none;stroke-width: 1;stroke-linejoin:miter;stroke-linecap:butt;stroke-miterlimit: 10;" id="p25_s7538"><path d="M321.8960,740.4200 L365.2510,740.4200 L365.2510,731.5660 L321.8960,731.5660 L321.8960,740.4200 Z"/></g><g style="stroke: #00FF00;fill:none;stroke-width: 1;stroke-linejoin:miter;stroke-linecap:butt;stroke-miterlimit: 10;" id="p25_s7539"><path d="M101.2310,770.0350 L132.1390,770.0350 L132.1390,760.5300 L101.2310,760.5300 L101.2310,770.0350 Z"/></g></svg>
