<?xml version="1.0" encoding="UTF-8"?>
<svg xmlns="http://www.w3.org/2000/svg"><g style="stroke: #00FFFF;fill:none;stroke-width: 1;stroke-linejoin:miter;stroke-linecap:butt;stroke-miterlimit: 10;" id="p125_s38705"><path d="M361.1030,130.9460 L522.1990,130.9460 L522.1990,118.0470 L361.1030,118.0470 L361.1030,130.9460 Z"/></g><g style="stroke: #00FFFF;fill:none;stroke-width: 1;stroke-linejoin:miter;stroke-linecap:butt;stroke-miterlimit: 10;" id="p125_s38706"><path d="M164.2980,206.3440 L336.5420,206.3440 L336.5420,193.4450 L164.2980,193.4450 L164.2980,206.3440 Z"/></g><g style="stroke: #00FFFF;fill:none;stroke-width: 1;stroke-linejoin:miter;stroke-linecap:butt;stroke-miterlimit: 10;" id="p125_s38707"><path d="M497.5200,248.8720 L526.0440,248.8720 L526.0440,235.9730 L497.5200,235.9730 L497.5200,248.8720 Z"/></g><g style="stroke: #00FFFF;fill:none;stroke-width: 1;stroke-linejoin:miter;stroke-linecap:butt;stroke-miterlimit: 10;" id="p125_s38708"><path d="M164.2980,265.3070 L296.8260,265.3070 L296.8260,252.4080 L164.2980,252.4080 L164.2980,265.3070 Z"/></g><g style="stroke: #00FFFF;fill:none;stroke-width: 1;stroke-linejoin:miter;stroke-linecap:butt;stroke-miterlimit: 10;" id="p125_s38709"><path d="M258.9200,324.2700 L420.0160,324.2700 L420.0160,311.3710 L258.9200,311.3710 L258.9200,324.2700 Z"/></g><g style="stroke: #00FFFF;fill:none;stroke-width: 1;stroke-linejoin:miter;stroke-linecap:butt;stroke-miterlimit: 10;" id="p125_s38710"><path d="M311.2210,366.7980 L472.3160,366.7980 L472.3160,353.8990 L311.2210,353.8990 L311.2210,366.7980 Z"/></g><g style="stroke: #00FFFF;fill:none;stroke-width: 1;stroke-linejoin:miter;stroke-linecap:butt;stroke-miterlimit: 10;" id="p125_s38711"><path d="M164.2980,442.1960 L331.1190,442.1960 L331.1190,429.2970 L164.2980,429.2970 L164.2980,442.1960 Z"/></g><g style="stroke: #00FFFF;fill:none;stroke-width: 1;stroke-linejoin:miter;stroke-linecap:butt;stroke-miterlimit: 10;" id="p125_s38712"><path d="M286.9750,484.7240 L448.0710,484.7240 L448.0710,471.8250 L286.9750,471.8250 L286.9750,484.7240 Z"/></g><g style="stroke: #00FFFF;fill:none;stroke-width: 1;stroke-linejoin:miter;stroke-linecap:butt;stroke-miterlimit: 10;" id="p125_s38713"><path d="M164.2980,527.2520 L352.7890,527.2520 L352.7890,514.3530 L164.2980,514.3530 L164.2980,527.2520 Z"/></g><g style="stroke: #00FFFF;fill:none;stroke-width: 1;stroke-linejoin:miter;stroke-linecap:butt;stroke-miterlimit: 10;" id="p125_s38714"><path d="M214.5210,569.7800 L466.4740,569.7800 L466.4740,556.8810 L214.5210,556.8810 L214.5210,569.7800 Z"/></g><g style="stroke: #00FFFF;fill:none;stroke-width: 1;stroke-linejoin:miter;stroke-linecap:butt;stroke-miterlimit: 10;" id="p125_s38715"><path d="M327.3310,730.2340 L526.0440,730.2340 L526.0440,717.3350 L327.3310,717.3350 L327.3310,730.2340 Z"/></g><g style="stroke: #00FFFF;fill:none;stroke-width: 1;stroke-linejoin:miter;stroke-linecap:butt;stroke-miterlimit: 10;" id="p125_s38716"><path d="M164.2980,746.4120 L321.9710,746.4120 L321.9710,734.4370 L164.2980,734.4370 L164.2980,746.4120 Z"/></g></svg>
