<?xml version="1.0" encoding="UTF-8"?>
<svg xmlns="http://www.w3.org/2000/svg"><g style="stroke: #00FFFF;stroke-dasharray:2.0000, 6.0000;fill:none;stroke-width: 1;stroke-linejoin:miter;stroke-linecap:butt;stroke-miterlimit: 10;" id="p1_s895"><path d="M10.9400,615.0000 L37.6200,615.0000 L37.6200,225.5000 L10.9400,225.5000 L10.9400,615.0000 Z"/></g><g style="stroke: #00FF00;stroke-dasharray:2.0000, 6.0000;fill:none;stroke-width: 1;stroke-linejoin:miter;stroke-linecap:butt;stroke-miterlimit: 10;" id="p1_s896"><path d="M265.5240,451.0960 L292.0800,451.0960 L292.0800,441.1340 L265.5240,441.1340 L265.5240,451.0960 Z"/></g><g style="stroke: #00FF00;stroke-dasharray:2.0000, 6.0000;fill:none;stroke-width: 1;stroke-linejoin:miter;stroke-linecap:butt;stroke-miterlimit: 10;" id="p1_s897"><path d="M35.8437,462.0160 L57.0000,462.0160 L57.0000,452.0540 L35.8437,452.0540 L35.8437,462.0160 Z"/></g><g style="stroke: #00FF00;stroke-dasharray:2.0000, 6.0000;fill:none;stroke-width: 1;stroke-linejoin:miter;stroke-linecap:butt;stroke-miterlimit: 10;" id="p1_s898"><path d="M61.5237,462.0160 L114.0000,462.0160 L114.0000,452.0540 L61.5237,452.0540 L61.5237,462.0160 Z"/></g><g style="stroke: #00FF00;stroke-dasharray:2.0000, 6.0000;fill:none;stroke-width: 1;stroke-linejoin:miter;stroke-linecap:butt;stroke-miterlimit: 10;" id="p1_s899"><path d="M116.0040,462.0160 L137.1600,462.0160 L137.1600,452.0540 L116.0040,452.0540 L116.0040,462.0160 Z"/></g><g style="stroke: #00FF00;stroke-dasharray:2.0000, 6.0000;fill:none;stroke-width: 1;stroke-linejoin:miter;stroke-linecap:butt;stroke-miterlimit: 10;" id="p1_s900"><path d="M211.7640,621.6160 L292.2000,621.6160 L292.2000,611.6540 L211.7640,611.6540 L211.7640,621.6160 Z"/></g><g style="stroke: #00FF00;stroke-dasharray:2.0000, 6.0000;fill:none;stroke-width: 1;stroke-linejoin:miter;stroke-linecap:butt;stroke-miterlimit: 10;" id="p1_s901"><path d="M35.8437,632.5360 L57.0000,632.5360 L57.0000,622.5740 L35.8437,622.5740 L35.8437,632.5360 Z"/></g><g style="stroke: #00FF00;stroke-dasharray:2.0000, 6.0000;fill:none;stroke-width: 1;stroke-linejoin:miter;stroke-linecap:butt;stroke-miterlimit: 10;" id="p1_s902"><path d="M375.5640,438.6160 L401.0400,438.6160 L401.0400,428.6540 L375.5640,428.6540 L375.5640,438.6160 Z"/></g><g style="stroke: #00FF00;stroke-dasharray:2.0000, 6.0000;fill:none;stroke-width: 1;stroke-linejoin:miter;stroke-linecap:butt;stroke-miterlimit: 10;" id="p1_s903"><path d="M402.3240,438.6160 L423.4800,438.6160 L423.4800,428.6540 L402.3240,428.6540 L402.3240,438.6160 Z"/></g><g style="stroke: #00FF00;stroke-dasharray:2.0000, 6.0000;fill:none;stroke-width: 1;stroke-linejoin:miter;stroke-linecap:butt;stroke-miterlimit: 10;" id="p1_s904"><path d="M427.5240,438.6160 L474.8400,438.6160 L474.8400,428.6540 L427.5240,428.6540 L427.5240,438.6160 Z"/></g><g style="stroke: #00FF00;stroke-dasharray:2.0000, 6.0000;fill:none;stroke-width: 1;stroke-linejoin:miter;stroke-linecap:butt;stroke-miterlimit: 10;" id="p1_s905"><path d="M476.2440,438.6160 L497.4000,438.6160 L497.4000,428.6540 L476.2440,428.6540 L476.2440,438.6160 Z"/></g><g style="stroke: #00FF00;stroke-dasharray:2.0000, 6.0000;fill:none;stroke-width: 1;stroke-linejoin:miter;stroke-linecap:butt;stroke-miterlimit: 10;" id="p1_s906"><path d="M499.5240,450.9760 L558.7200,450.9760 L558.7200,441.0140 L499.5240,441.0140 L499.5240,450.9760 Z"/></g><g style="stroke: #00FF00;stroke-dasharray:2.0000, 6.0000;fill:none;stroke-width: 1;stroke-linejoin:miter;stroke-linecap:butt;stroke-miterlimit: 10;" id="p1_s907"><path d="M302.3640,461.8960 L323.5200,461.8960 L323.5200,451.9340 L302.3640,451.9340 L302.3640,461.8960 Z"/></g><g style="stroke: #00FF00;stroke-dasharray:2.0000, 6.0000;fill:none;stroke-width: 1;stroke-linejoin:miter;stroke-linecap:butt;stroke-miterlimit: 10;" id="p1_s908"><path d="M318.6840,538.6960 L397.2000,538.6960 L397.2000,528.7340 L318.6840,528.7340 L318.6840,538.6960 Z"/></g><g style="stroke: #00FF00;stroke-dasharray:2.0000, 6.0000;fill:none;stroke-width: 1;stroke-linejoin:miter;stroke-linecap:butt;stroke-miterlimit: 10;" id="p1_s909"><path d="M398.1240,538.6960 L419.2800,538.6960 L419.2800,528.7340 L398.1240,528.7340 L398.1240,538.6960 Z"/></g><g style="stroke: #00FF00;stroke-dasharray:2.0000, 6.0000;fill:none;stroke-width: 1;stroke-linejoin:miter;stroke-linecap:butt;stroke-miterlimit: 10;" id="p1_s910"><path d="M422.8440,538.6960 L472.8000,538.6960 L472.8000,528.7340 L422.8440,528.7340 L422.8440,538.6960 Z"/></g><g style="stroke: #00FF00;stroke-dasharray:2.0000, 6.0000;fill:none;stroke-width: 1;stroke-linejoin:miter;stroke-linecap:butt;stroke-miterlimit: 10;" id="p1_s911"><path d="M473.8440,538.6960 L495.0000,538.6960 L495.0000,528.7340 L473.8440,528.7340 L473.8440,538.6960 Z"/></g><g style="stroke: #00FF00;stroke-dasharray:2.0000, 6.0000;fill:none;stroke-width: 1;stroke-linejoin:miter;stroke-linecap:butt;stroke-miterlimit: 10;" id="p1_s912"><path d="M498.4440,538.6960 L558.4800,538.6960 L558.4800,528.7340 L498.4440,528.7340 L498.4440,538.6960 Z"/></g><g style="stroke: #00FF00;stroke-dasharray:2.0000, 6.0000;fill:none;stroke-width: 1;stroke-linejoin:miter;stroke-linecap:butt;stroke-miterlimit: 10;" id="p1_s913"><path d="M302.3640,549.6160 L323.5200,549.6160 L323.5200,539.6540 L302.3640,539.6540 L302.3640,549.6160 Z"/></g><g style="stroke: #00FF00;stroke-dasharray:2.0000, 6.0000;fill:none;stroke-width: 1;stroke-linejoin:miter;stroke-linecap:butt;stroke-miterlimit: 10;" id="p1_s914"><path d="M305.7240,582.4960 L382.6800,582.4960 L382.6800,572.5340 L305.7240,572.5340 L305.7240,582.4960 Z"/></g><g style="stroke: #00FF00;stroke-dasharray:2.0000, 6.0000;fill:none;stroke-width: 1;stroke-linejoin:miter;stroke-linecap:butt;stroke-miterlimit: 10;" id="p1_s915"><path d="M383.9640,582.4960 L405.1200,582.4960 L405.1200,572.5340 L383.9640,572.5340 L383.9640,582.4960 Z"/></g><g style="stroke: #00FF00;stroke-dasharray:2.0000, 6.0000;fill:none;stroke-width: 1;stroke-linejoin:miter;stroke-linecap:butt;stroke-miterlimit: 10;" id="p1_s916"><path d="M408.9240,582.4960 L455.6400,582.4960 L455.6400,572.5340 L408.9240,572.5340 L408.9240,582.4960 Z"/></g><g style="stroke: #00FF00;stroke-dasharray:2.0000, 6.0000;fill:none;stroke-width: 1;stroke-linejoin:miter;stroke-linecap:butt;stroke-miterlimit: 10;" id="p1_s917"><path d="M456.9240,582.4960 L478.0800,582.4960 L478.0800,572.5340 L456.9240,572.5340 L456.9240,582.4960 Z"/></g><g style="stroke: #00FF00;stroke-dasharray:2.0000, 6.0000;fill:none;stroke-width: 1;stroke-linejoin:miter;stroke-linecap:butt;stroke-miterlimit: 10;" id="p1_s918"><path d="M481.8840,582.4960 L558.4800,582.4960 L558.4800,572.5340 L481.8840,572.5340 L481.8840,582.4960 Z"/></g><g style="stroke: #00FF00;stroke-dasharray:2.0000, 6.0000;fill:none;stroke-width: 1;stroke-linejoin:miter;stroke-linecap:butt;stroke-miterlimit: 10;" id="p1_s919"><path d="M302.3640,593.4160 L323.5200,593.4160 L323.5200,583.4540 L302.3640,583.4540 L302.3640,593.4160 Z"/></g><g style="stroke: #00FF00;stroke-dasharray:2.0000, 6.0000;fill:none;stroke-width: 1;stroke-linejoin:miter;stroke-linecap:butt;stroke-miterlimit: 10;" id="p1_s920"><path d="M327.4440,593.4160 L385.8000,593.4160 L385.8000,583.4540 L327.4440,583.4540 L327.4440,593.4160 Z"/></g><g style="stroke: #00FF00;stroke-dasharray:2.0000, 6.0000;fill:none;stroke-width: 1;stroke-linejoin:miter;stroke-linecap:butt;stroke-miterlimit: 10;" id="p1_s921"><path d="M387.2040,593.4160 L408.3600,593.4160 L408.3600,583.4540 L387.2040,583.4540 L387.2040,593.4160 Z"/></g><g style="stroke: #00FF00;stroke-dasharray:2.0000, 6.0000;fill:none;stroke-width: 1;stroke-linejoin:miter;stroke-linecap:butt;stroke-miterlimit: 10;" id="p1_s922"><path d="M412.4040,593.4160 L480.0000,593.4160 L480.0000,583.4540 L412.4040,583.4540 L412.4040,593.4160 Z"/></g><g style="stroke: #00FF00;stroke-dasharray:2.0000, 6.0000;fill:none;stroke-width: 1;stroke-linejoin:miter;stroke-linecap:butt;stroke-miterlimit: 10;" id="p1_s923"><path d="M481.5240,593.4160 L502.6800,593.4160 L502.6800,583.4540 L481.5240,583.4540 L481.5240,593.4160 Z"/></g><g style="stroke: #00FF00;stroke-dasharray:2.0000, 6.0000;fill:none;stroke-width: 1;stroke-linejoin:miter;stroke-linecap:butt;stroke-miterlimit: 10;" id="p1_s924"><path d="M305.7240,627.7360 L368.8800,627.7360 L368.8800,617.7740 L305.7240,617.7740 L305.7240,627.7360 Z"/></g><g style="stroke: #00FF00;stroke-dasharray:2.0000, 6.0000;fill:none;stroke-width: 1;stroke-linejoin:miter;stroke-linecap:butt;stroke-miterlimit: 10;" id="p1_s925"><path d="M370.2840,627.7360 L391.4400,627.7360 L391.4400,617.7740 L370.2840,617.7740 L370.2840,627.7360 Z"/></g><g style="stroke: #00FF00;stroke-dasharray:2.0000, 6.0000;fill:none;stroke-width: 1;stroke-linejoin:miter;stroke-linecap:butt;stroke-miterlimit: 10;" id="p1_s926"><path d="M395.2440,627.7360 L451.0800,627.7360 L451.0800,617.7740 L395.2440,617.7740 L395.2440,627.7360 Z"/></g><g style="stroke: #00FF00;stroke-dasharray:2.0000, 6.0000;fill:none;stroke-width: 1;stroke-linejoin:miter;stroke-linecap:butt;stroke-miterlimit: 10;" id="p1_s927"><path d="M452.4840,627.7360 L473.6400,627.7360 L473.6400,617.7740 L452.4840,617.7740 L452.4840,627.7360 Z"/></g><g style="stroke: #00FF00;stroke-dasharray:2.0000, 6.0000;fill:none;stroke-width: 1;stroke-linejoin:miter;stroke-linecap:butt;stroke-miterlimit: 10;" id="p1_s928"><path d="M477.4440,627.7360 L533.4000,627.7360 L533.4000,617.7740 L477.4440,617.7740 L477.4440,627.7360 Z"/></g><g style="stroke: #00FF00;stroke-dasharray:2.0000, 6.0000;fill:none;stroke-width: 1;stroke-linejoin:miter;stroke-linecap:butt;stroke-miterlimit: 10;" id="p1_s929"><path d="M534.6840,627.7360 L555.8400,627.7360 L555.8400,617.7740 L534.6840,617.7740 L534.6840,627.7360 Z"/></g><g style="stroke: #00FF00;stroke-dasharray:2.0000, 6.0000;fill:none;stroke-width: 1;stroke-linejoin:miter;stroke-linecap:butt;stroke-miterlimit: 10;" id="p1_s930"><path d="M302.3640,638.7760 L343.9200,638.7760 L343.9200,628.8140 L302.3640,628.8140 L302.3640,638.7760 Z"/></g><g style="stroke: #00FF00;stroke-dasharray:2.0000, 6.0000;fill:none;stroke-width: 1;stroke-linejoin:miter;stroke-linecap:butt;stroke-miterlimit: 10;" id="p1_s931"><path d="M346.0440,638.7760 L367.2000,638.7760 L367.2000,628.8140 L346.0440,628.8140 L346.0440,638.7760 Z"/></g><g style="stroke: #00FF00;stroke-dasharray:2.0000, 6.0000;fill:none;stroke-width: 1;stroke-linejoin:miter;stroke-linecap:butt;stroke-miterlimit: 10;" id="p1_s932"><path d="M499.6440,693.4960 L558.4800,693.4960 L558.4800,683.5340 L499.6440,683.5340 L499.6440,693.4960 Z"/></g><g style="stroke: #00FF00;stroke-dasharray:2.0000, 6.0000;fill:none;stroke-width: 1;stroke-linejoin:miter;stroke-linecap:butt;stroke-miterlimit: 10;" id="p1_s933"><path d="M305.7240,704.5360 L326.8800,704.5360 L326.8800,694.5740 L305.7240,694.5740 L305.7240,704.5360 Z"/></g><g style="stroke: #00FF00;stroke-dasharray:2.0000, 6.0000;fill:none;stroke-width: 1;stroke-linejoin:miter;stroke-linecap:butt;stroke-miterlimit: 10;" id="p1_s934"><path d="M364.0440,737.2960 L451.8000,737.2960 L451.8000,727.3340 L364.0440,727.3340 L364.0440,737.2960 Z"/></g><g style="stroke: #00FF00;stroke-dasharray:2.0000, 6.0000;fill:none;stroke-width: 1;stroke-linejoin:miter;stroke-linecap:butt;stroke-miterlimit: 10;" id="p1_s935"><path d="M453.4440,737.2960 L474.6000,737.2960 L474.6000,727.3340 L453.4440,727.3340 L453.4440,737.2960 Z"/></g><g style="stroke: #00FF00;stroke-dasharray:2.0000, 6.0000;fill:none;stroke-width: 1;stroke-linejoin:miter;stroke-linecap:butt;stroke-miterlimit: 10;" id="p1_s936"><path d="M478.7640,737.2960 L558.4800,737.2960 L558.4800,727.3340 L478.7640,727.3340 L478.7640,737.2960 Z"/></g><g style="stroke: #00FF00;stroke-dasharray:2.0000, 6.0000;fill:none;stroke-width: 1;stroke-linejoin:miter;stroke-linecap:butt;stroke-miterlimit: 10;" id="p1_s937"><path d="M302.3640,748.3362 L323.5200,748.3362 L323.5200,738.3740 L302.3640,738.3740 L302.3640,748.3362 Z"/></g><g style="stroke: #00FF00;stroke-dasharray:2.0000, 6.0000;fill:none;stroke-width: 1;stroke-linejoin:miter;stroke-linecap:butt;stroke-miterlimit: 10;" id="p1_s938"><path d="M327.2040,748.3362 L382.8000,748.3362 L382.8000,738.3740 L327.2040,738.3740 L327.2040,748.3362 Z"/></g><g style="stroke: #00FF00;stroke-dasharray:2.0000, 6.0000;fill:none;stroke-width: 1;stroke-linejoin:miter;stroke-linecap:butt;stroke-miterlimit: 10;" id="p1_s939"><path d="M383.9640,748.3362 L405.1200,748.3362 L405.1200,738.3740 L383.9640,738.3740 L383.9640,748.3362 Z"/></g></svg>
