<?xml version="1.0" encoding="UTF-8"?>
<svg xmlns="http://www.w3.org/2000/svg"><g style="stroke: #000000;fill:none;stroke-width: 0.498;stroke-linejoin:miter;stroke-linecap:butt;stroke-miterlimit: 10;" id="p75_s40915"><path d="M90.1420,36.0510 L539.1500,36.0510"/></g><g style="stroke: #FF0000;fill:none;stroke-width: 0.3985;stroke-linejoin:miter;stroke-linecap:butt;stroke-miterlimit: 10;" id="p75_s40916"><path d="M231.5101,155.8470 C231.5101,142.9550 224.2161,131.1677 212.6812,125.4118"/></g><g style="stroke: #FF0000;fill:none;stroke-width: 0.3985;stroke-linejoin:miter;stroke-linecap:butt;stroke-miterlimit: 10;" id="p75_s40917"><path d="M230.7131,155.8470 C230.7131,143.2570 223.5900,131.7460 212.3254,126.1249"/></g><g style="stroke: #FF0000;fill:none;stroke-width: 0.3985;stroke-linejoin:miter;stroke-linecap:butt;stroke-miterlimit: 10;" id="p75_s40918"><path d="M232.3071,155.8470 C232.3071,142.6529 224.8422,130.5895 213.0371,124.6987"/></g><g style="fill: #FFCBCB;fill-opacity: 1;" id="p75_s40919"><path d="M197.4940,155.8470 L231.5101,155.8470 C231.5101,142.9550 224.2161,131.1677 212.6812,125.4118 L197.4940,155.8470 Z"/></g><g style="stroke: #00FF00;fill:none;stroke-width: 0.99628;stroke-linejoin:miter;stroke-linecap:butt;stroke-miterlimit: 10;" id="p75_s40920"><path d="M197.4940,155.8470 L308.0468,155.8470"/></g><g style="stroke: #000000;fill:none;stroke-width: 0.99628;stroke-linejoin:miter;stroke-linecap:butt;stroke-miterlimit: 10;" id="p75_s40921"><path d="M197.4940,155.8470 L242.8491,65.1369"/></g><g style="stroke: #00FF00;fill:none;stroke-width: 0.99628;stroke-linejoin:miter;stroke-linecap:butt;stroke-miterlimit: 10;" id="p75_s40931"><path d="M197.4940,155.8470 L282.5335,70.8074"/></g><g style="stroke: #00FF00;fill:none;stroke-width: 0.3985;stroke-linejoin:miter;stroke-linecap:butt;stroke-miterlimit: 10;" id="p75_s40932"><path d="M220.1715,155.8470 C220.1715,149.8337 217.7815,144.0636 213.5294,139.8116"/></g><g style="fill: #CBFFCB;fill-opacity: 1;" id="p75_s40933"><path d="M197.4940,155.8470 L220.1715,155.8470 C220.1715,149.8337 217.7815,144.0636 213.5294,139.8116 L197.4940,155.8470 Z"/></g><g style="fill: #000000;fill-opacity: 1;" id="p75_s40934"><path d="M199.4865,155.8470 C199.4865,154.7466 198.5944,153.8545 197.4940,153.8545 C196.3936,153.8545 195.5015,154.7466 195.5015,155.8470 C195.5015,156.9474 196.3936,157.8395 197.4940,157.8395 C198.5944,157.8395 199.4865,156.9474 199.4865,155.8470 Z"/></g><g style="stroke: #000000;fill:none;stroke-width: 0.3985;stroke-linejoin:miter;stroke-linecap:butt;stroke-miterlimit: 10;" id="p75_s40935"><path d="M199.4865,155.8470 C199.4865,154.7466 198.5944,153.8545 197.4940,153.8545 C196.3936,153.8545 195.5015,154.7466 195.5015,155.8470 C195.5015,156.9474 196.3936,157.8395 197.4940,157.8395 C198.5944,157.8395 199.4865,156.9474 199.4865,155.8470 Z"/></g><g style="fill: #000000;fill-opacity: 1;" id="p75_s40936"><path d="M242.0067,155.8470 C242.0067,154.7466 241.1146,153.8545 240.0142,153.8545 C238.9137,153.8545 238.0217,154.7466 238.0217,155.8470 C238.0217,156.9474 238.9137,157.8395 240.0142,157.8395 C241.1146,157.8395 242.0067,156.9474 242.0067,155.8470 Z"/></g><g style="stroke: #000000;fill:none;stroke-width: 0.3985;stroke-linejoin:miter;stroke-linecap:butt;stroke-miterlimit: 10;" id="p75_s40937"><path d="M242.0067,155.8470 C242.0067,154.7466 241.1146,153.8545 240.0142,153.8545 C238.9137,153.8545 238.0217,154.7466 238.0217,155.8470 C238.0217,156.9474 238.9137,157.8395 240.0142,157.8395 C241.1146,157.8395 242.0067,156.9474 242.0067,155.8470 Z"/></g><g style="fill: #000000;fill-opacity: 1;" id="p75_s40938"><path d="M284.5269,155.8470 C284.5269,154.7466 283.6349,153.8545 282.5344,153.8545 C281.4340,153.8545 280.5419,154.7466 280.5419,155.8470 C280.5419,156.9474 281.4340,157.8395 282.5344,157.8395 C283.6349,157.8395 284.5269,156.9474 284.5269,155.8470 Z"/></g><g style="stroke: #000000;fill:none;stroke-width: 0.3985;stroke-linejoin:miter;stroke-linecap:butt;stroke-miterlimit: 10;" id="p75_s40939"><path d="M284.5269,155.8470 C284.5269,154.7466 283.6349,153.8545 282.5344,153.8545 C281.4340,153.8545 280.5419,154.7466 280.5419,155.8470 C280.5419,156.9474 281.4340,157.8395 282.5344,157.8395 C283.6349,157.8395 284.5269,156.9474 284.5269,155.8470 Z"/></g><g style="fill: #000000;fill-opacity: 1;" id="p75_s40940"><path d="M227.8333,99.1534 C227.8333,98.0529 226.9412,97.1609 225.8408,97.1609 C224.7404,97.1609 223.8483,98.0529 223.8483,99.1534 C223.8483,100.2538 224.7404,101.1459 225.8408,101.1459 C226.9412,101.1459 227.8333,100.2538 227.8333,99.1534 Z"/></g><g style="stroke: #000000;fill:none;stroke-width: 0.3985;stroke-linejoin:miter;stroke-linecap:butt;stroke-miterlimit: 10;" id="p75_s40941"><path d="M227.8333,99.1534 C227.8333,98.0529 226.9412,97.1609 225.8408,97.1609 C224.7404,97.1609 223.8483,98.0529 223.8483,99.1534 C223.8483,100.2538 224.7404,101.1459 225.8408,101.1459 C226.9412,101.1459 227.8333,100.2538 227.8333,99.1534 Z"/></g><g style="fill: #000000;fill-opacity: 1;" id="p75_s40942"><path d="M242.0063,113.3272 C242.0063,112.2268 241.1142,111.3347 240.0137,111.3347 C238.9133,111.3347 238.0212,112.2268 238.0212,113.3272 C238.0212,114.4276 238.9133,115.3197 240.0137,115.3197 C241.1142,115.3197 242.0063,114.4276 242.0063,113.3272 Z"/></g><g style="stroke: #000000;fill:none;stroke-width: 0.3985;stroke-linejoin:miter;stroke-linecap:butt;stroke-miterlimit: 10;" id="p75_s40943"><path d="M242.0063,113.3272 C242.0063,112.2268 241.1142,111.3347 240.0137,111.3347 C238.9133,111.3347 238.0212,112.2268 238.0212,113.3272 C238.0212,114.4276 238.9133,115.3197 240.0137,115.3197 C241.1142,115.3197 242.0063,114.4276 242.0063,113.3272 Z"/></g><g style="stroke: #00FF00;fill:none;stroke-width: 0.3985;stroke-linejoin:miter;stroke-linecap:butt;stroke-miterlimit: 10;" id="p75_s40958"><path d="M374.0385,146.2398 C374.0385,139.7937 370.3914,133.9000 364.6239,131.0220"/></g><g style="fill: #CBFFCB;fill-opacity: 1;" id="p75_s40959"><path d="M357.0302,146.2398 L374.0385,146.2398 C374.0385,139.7937 370.3914,133.9000 364.6239,131.0220 L357.0302,146.2398 Z"/></g><g style="stroke: #00FF00;fill:none;stroke-width: 0.3985;stroke-linejoin:miter;stroke-linecap:butt;stroke-miterlimit: 10;" id="p75_s40960"><path d="M406.1301,131.0220 C400.3626,133.9000 396.7156,139.7937 396.7156,146.2398"/></g><g style="fill: #CBFFCB;fill-opacity: 1;" id="p75_s40961"><path d="M413.7238,146.2398 L406.1301,131.0220 C400.3626,133.9000 396.7156,139.7937 396.7156,146.2398 L413.7238,146.2398 Z"/></g><g style="stroke: #00FF00;fill:none;stroke-width: 0.3985;stroke-linejoin:miter;stroke-linecap:butt;stroke-miterlimit: 10;" id="p75_s40962"><path d="M377.7833,104.7640 C382.5637,107.1494 388.1903,107.1494 392.9707,104.7640"/></g><g style="fill: #CBFFCB;fill-opacity: 1;" id="p75_s40963"><path d="M385.3770,89.5462 L377.7833,104.7640 C382.5637,107.1494 388.1903,107.1494 392.9707,104.7640 L385.3770,89.5462 Z"/></g><g style="stroke: #0000FF;fill:none;stroke-width: 0.3985;stroke-linejoin:miter;stroke-linecap:butt;stroke-miterlimit: 10;" id="p75_s40964"><path d="M364.6239,131.0220 C356.2193,126.8281 346.0063,130.2415 341.8124,138.6461 C340.6360,141.0037 340.0219,143.6048 340.0219,146.2398"/></g><g style="stroke: #0000FF;fill:none;stroke-width: 0.3985;stroke-linejoin:miter;stroke-linecap:butt;stroke-miterlimit: 10;" id="p75_s40965"><path d="M364.2681,131.7351 C356.2572,127.7377 346.5229,130.9911 342.5255,139.0020 C341.4042,141.2490 340.8189,143.7283 340.8189,146.2398"/></g><g style="stroke: #0000FF;fill:none;stroke-width: 0.3985;stroke-linejoin:miter;stroke-linecap:butt;stroke-miterlimit: 10;" id="p75_s40966"><path d="M364.9798,130.3089 C356.1813,125.9184 345.4898,129.4918 341.0993,138.2903 C339.8677,140.7583 339.2249,143.4814 339.2249,146.2398"/></g><g style="fill: #CBCBFF;fill-opacity: 1;" id="p75_s40967"><path d="M357.0302,146.2398 L364.6239,131.0220 C356.2193,126.8281 346.0063,130.2415 341.8124,138.6461 C340.6360,141.0037 340.0219,143.6048 340.0219,146.2398 L357.0302,146.2398 Z"/></g><g style="stroke: #0000FF;fill:none;stroke-width: 0.3985;stroke-linejoin:miter;stroke-linecap:butt;stroke-miterlimit: 10;" id="p75_s40968"><path d="M349.4246,161.4514 C357.8258,165.6519 368.0412,162.2467 372.2418,153.8454 C373.4220,151.4849 374.0385,148.8792 374.0385,146.2398"/></g><g style="stroke: #0000FF;fill:none;stroke-width: 0.3985;stroke-linejoin:miter;stroke-linecap:butt;stroke-miterlimit: 10;" id="p75_s40969"><path d="M349.7810,160.7386 C357.7885,164.7423 367.5253,161.4966 371.5290,153.4891 C372.6539,151.2391 373.2415,148.7555 373.2415,146.2398"/></g><g style="stroke: #0000FF;fill:none;stroke-width: 0.3985;stroke-linejoin:miter;stroke-linecap:butt;stroke-miterlimit: 10;" id="p75_s40970"><path d="M349.0682,162.1642 C357.8630,166.5616 368.5572,162.9967 372.9546,154.2019 C374.1901,151.7307 374.8355,149.0029 374.8355,146.2398"/></g><g style="fill: #CBCBFF;fill-opacity: 1;" id="p75_s40971"><path d="M357.0302,146.2398 L349.4246,161.4514 C357.8258,165.6519 368.0412,162.2467 372.2418,153.8454 C373.4220,151.4849 374.0385,148.8792 374.0385,146.2398 L357.0302,146.2398 Z"/></g><g style="stroke: #0000FF;fill:none;stroke-width: 0.3985;stroke-linejoin:miter;stroke-linecap:butt;stroke-miterlimit: 10;" id="p75_s40972"><path d="M377.7714,74.3346 C369.3702,78.5352 365.9649,88.7506 370.1655,97.1518 C371.8128,100.4466 374.4872,103.1192 377.7833,104.7640"/></g><g style="stroke: #0000FF;fill:none;stroke-width: 0.3985;stroke-linejoin:miter;stroke-linecap:butt;stroke-miterlimit: 10;" id="p75_s40973"><path d="M378.1278,75.0475 C370.1202,79.0511 366.8746,88.7879 370.8783,96.7955 C372.4484,99.9358 374.9975,102.4832 378.1392,104.0509"/></g><g style="stroke: #0000FF;fill:none;stroke-width: 0.3985;stroke-linejoin:miter;stroke-linecap:butt;stroke-miterlimit: 10;" id="p75_s40974"><path d="M377.4150,73.6218 C368.6201,78.0192 365.0553,88.7134 369.4526,97.5083 C371.1772,100.9574 373.9769,103.7552 377.4275,105.4771"/></g><g style="fill: #CBCBFF;fill-opacity: 1;" id="p75_s40975"><path d="M385.3770,89.5462 L377.7714,74.3346 C369.3702,78.5352 365.9649,88.7506 370.1655,97.1518 C371.8128,100.4466 374.4872,103.1192 377.7833,104.7640 L385.3770,89.5462 Z"/></g><g style="stroke: #0000FF;fill:none;stroke-width: 0.3985;stroke-linejoin:miter;stroke-linecap:butt;stroke-miterlimit: 10;" id="p75_s40976"><path d="M392.9707,104.7640 C401.3753,100.5701 404.7887,90.3571 400.5948,81.9525 C398.9500,78.6564 396.2774,75.9820 392.9826,74.3346"/></g><g style="stroke: #0000FF;fill:none;stroke-width: 0.3985;stroke-linejoin:miter;stroke-linecap:butt;stroke-miterlimit: 10;" id="p75_s40977"><path d="M392.6148,104.0509 C400.6257,100.0535 403.8791,90.3192 399.8817,82.3083 C398.3140,79.1667 395.7666,76.6176 392.6262,75.0475"/></g><g style="stroke: #0000FF;fill:none;stroke-width: 0.3985;stroke-linejoin:miter;stroke-linecap:butt;stroke-miterlimit: 10;" id="p75_s40978"><path d="M393.3265,105.4771 C402.1250,101.0866 405.6984,90.3951 401.3079,81.5966 C399.5861,78.1461 396.7882,75.3464 393.3390,73.6218"/></g><g style="fill: #CBCBFF;fill-opacity: 1;" id="p75_s40979"><path d="M385.3770,89.5462 L392.9707,104.7640 C401.3753,100.5701 404.7887,90.3571 400.5948,81.9525 C398.9500,78.6564 396.2774,75.9820 392.9826,74.3346 L385.3770,89.5462 Z"/></g><g style="stroke: #0000FF;fill:none;stroke-width: 0.3985;stroke-linejoin:miter;stroke-linecap:butt;stroke-miterlimit: 10;" id="p75_s40980"><path d="M430.7321,146.2398 C430.7321,136.8463 423.1173,129.2316 413.7238,129.2316 C411.0888,129.2316 408.4877,129.8456 406.1301,131.0220"/></g><g style="stroke: #0000FF;fill:none;stroke-width: 0.3985;stroke-linejoin:miter;stroke-linecap:butt;stroke-miterlimit: 10;" id="p75_s40981"><path d="M429.9351,146.2398 C429.9351,137.2865 422.6771,130.0285 413.7238,130.0285 C411.2123,130.0285 408.7330,130.6138 406.4860,131.7351"/></g><g style="stroke: #0000FF;fill:none;stroke-width: 0.3985;stroke-linejoin:miter;stroke-linecap:butt;stroke-miterlimit: 10;" id="p75_s40982"><path d="M431.5291,146.2398 C431.5291,136.4061 423.5575,128.4345 413.7238,128.4345 C410.9654,128.4345 408.2423,129.0773 405.7742,130.3089"/></g><g style="fill: #CBCBFF;fill-opacity: 1;" id="p75_s40983"><path d="M413.7238,146.2398 L430.7321,146.2398 C430.7321,136.8463 423.1173,129.2316 413.7238,129.2316 C411.0888,129.2316 408.4877,129.8456 406.1301,131.0220 L413.7238,146.2398 Z"/></g><g style="stroke: #0000FF;fill:none;stroke-width: 0.3985;stroke-linejoin:miter;stroke-linecap:butt;stroke-miterlimit: 10;" id="p75_s40984"><path d="M396.7156,146.2398 C396.7156,155.6333 404.3303,163.2481 413.7238,163.2481 C416.3632,163.2481 418.9689,162.6316 421.3294,161.4514"/></g><g style="stroke: #0000FF;fill:none;stroke-width: 0.3985;stroke-linejoin:miter;stroke-linecap:butt;stroke-miterlimit: 10;" id="p75_s40985"><path d="M397.5125,146.2398 C397.5125,155.1931 404.7705,162.4511 413.7238,162.4511 C416.2395,162.4511 418.7231,161.8635 420.9731,160.7386"/></g><g style="stroke: #0000FF;fill:none;stroke-width: 0.3985;stroke-linejoin:miter;stroke-linecap:butt;stroke-miterlimit: 10;" id="p75_s40986"><path d="M395.9185,146.2398 C395.9185,156.0735 403.8901,164.0451 413.7238,164.0451 C416.4869,164.0451 419.2147,163.3997 421.6859,162.1642"/></g><g style="fill: #CBCBFF;fill-opacity: 1;" id="p75_s40987"><path d="M413.7238,146.2398 L396.7156,146.2398 C396.7156,155.6333 404.3303,163.2481 413.7238,163.2481 C416.3632,163.2481 418.9689,162.6316 421.3294,161.4514 L413.7238,146.2398 Z"/></g><g style="stroke: #000000;fill:none;stroke-width: 0.99628;stroke-linejoin:miter;stroke-linecap:butt;stroke-miterlimit: 10;" id="p75_s40988"><path d="M395.2986,69.7031 L347.1086,166.0829"/></g><g style="stroke: #000000;fill:none;stroke-width: 0.99628;stroke-linejoin:miter;stroke-linecap:butt;stroke-miterlimit: 10;" id="p75_s40989"><path d="M375.4554,69.7031 L423.6454,166.0829"/></g><g style="stroke: #000000;fill:none;stroke-width: 0.99628;stroke-linejoin:miter;stroke-linecap:butt;stroke-miterlimit: 10;" id="p75_s40990"><path d="M334.3531,146.2398 L436.4009,146.2398"/></g><g style="fill: #000000;fill-opacity: 1;" id="p75_s40994"><path d="M387.3695,89.5462 C387.3695,88.4458 386.4774,87.5537 385.3770,87.5537 C384.2766,87.5537 383.3845,88.4458 383.3845,89.5462 C383.3845,90.6466 384.2766,91.5387 385.3770,91.5387 C386.4774,91.5387 387.3695,90.6466 387.3695,89.5462 Z"/></g><g style="stroke: #000000;fill:none;stroke-width: 0.3985;stroke-linejoin:miter;stroke-linecap:butt;stroke-miterlimit: 10;" id="p75_s40995"><path d="M387.3695,89.5462 C387.3695,88.4458 386.4774,87.5537 385.3770,87.5537 C384.2766,87.5537 383.3845,88.4458 383.3845,89.5462 C383.3845,90.6466 384.2766,91.5387 385.3770,91.5387 C386.4774,91.5387 387.3695,90.6466 387.3695,89.5462 Z"/></g><g style="fill: #000000;fill-opacity: 1;" id="p75_s40996"><path d="M359.0227,146.2398 C359.0227,145.1394 358.1306,144.2473 357.0302,144.2473 C355.9298,144.2473 355.0377,145.1394 355.0377,146.2398 C355.0377,147.3403 355.9298,148.2323 357.0302,148.2323 C358.1306,148.2323 359.0227,147.3403 359.0227,146.2398 Z"/></g><g style="stroke: #000000;fill:none;stroke-width: 0.3985;stroke-linejoin:miter;stroke-linecap:butt;stroke-miterlimit: 10;" id="p75_s40997"><path d="M359.0227,146.2398 C359.0227,145.1394 358.1306,144.2473 357.0302,144.2473 C355.9298,144.2473 355.0377,145.1394 355.0377,146.2398 C355.0377,147.3403 355.9298,148.2323 357.0302,148.2323 C358.1306,148.2323 359.0227,147.3403 359.0227,146.2398 Z"/></g><g style="fill: #000000;fill-opacity: 1;" id="p75_s40998"><path d="M415.7163,146.2398 C415.7163,145.1394 414.8243,144.2473 413.7238,144.2473 C412.6234,144.2473 411.7313,145.1394 411.7313,146.2398 C411.7313,147.3403 412.6234,148.2323 413.7238,148.2323 C414.8243,148.2323 415.7163,147.3403 415.7163,146.2398 Z"/></g><g style="stroke: #000000;fill:none;stroke-width: 0.3985;stroke-linejoin:miter;stroke-linecap:butt;stroke-miterlimit: 10;" id="p75_s40999"><path d="M415.7163,146.2398 C415.7163,145.1394 414.8243,144.2473 413.7238,144.2473 C412.6234,144.2473 411.7313,145.1394 411.7313,146.2398 C411.7313,147.3403 412.6234,148.2323 413.7238,148.2323 C414.8243,148.2323 415.7163,147.3403 415.7163,146.2398 Z"/></g><g style="fill: #E5FFE5;fill-opacity: 1;" id="p75_s41018"><path d="M231.6512,329.9000 L259.9980,329.9000 L259.9980,386.5936 L231.6512,329.9000 Z"/></g><g style="fill: #E5FFE5;fill-opacity: 1;" id="p75_s41019"><path d="M259.9980,329.9000 L259.9980,273.2064 L288.3448,329.9000 L259.9980,329.9000 Z"/></g><g style="stroke: #FF0000;fill:none;stroke-width: 0.3985;stroke-linejoin:miter;stroke-linecap:butt;stroke-miterlimit: 10;" id="p75_s41020"><path d="M283.2825,319.7551 C279.4376,321.6737 277.0063,325.6027 277.0063,329.9000"/></g><g style="fill: #FFCBCB;fill-opacity: 1;" id="p75_s41021"><path d="M288.3448,329.9000 L283.2825,319.7551 C279.4376,321.6737 277.0063,325.6027 277.0063,329.9000 L288.3448,329.9000 Z"/></g><g style="stroke: #00FF00;fill:none;stroke-width: 0.3985;stroke-linejoin:miter;stroke-linecap:butt;stroke-miterlimit: 10;" id="p75_s41022"><path d="M227.4404,340.4271 C231.2009,341.9313 235.4795,341.3149 238.6625,338.8103 C241.3941,336.6609 242.9897,333.3760 242.9897,329.9000"/></g><g style="stroke: #00FF00;fill:none;stroke-width: 0.3985;stroke-linejoin:miter;stroke-linecap:butt;stroke-miterlimit: 10;" id="p75_s41023"><path d="M227.7364,339.6871 C231.2326,341.0856 235.2104,340.5125 238.1697,338.1840 C240.7093,336.1856 242.1927,333.1316 242.1927,329.9000"/></g><g style="stroke: #00FF00;fill:none;stroke-width: 0.3985;stroke-linejoin:miter;stroke-linecap:butt;stroke-miterlimit: 10;" id="p75_s41024"><path d="M227.1444,341.1671 C231.1693,342.7770 235.7487,342.1173 239.1554,339.4366 C242.0789,337.1361 243.7868,333.6203 243.7868,329.9000"/></g><g style="fill: #CBFFCB;fill-opacity: 1;" id="p75_s41025"><path d="M231.6512,329.9000 L227.4404,340.4271 C231.2009,341.9313 235.4795,341.3149 238.6625,338.8103 C241.3941,336.6609 242.9897,333.3760 242.9897,329.9000 L231.6512,329.9000 Z"/></g><g style="stroke: #000000;fill:none;stroke-width: 0.99628;stroke-linejoin:miter;stroke-linecap:butt;stroke-miterlimit: 10;" id="p75_s41026"><path d="M231.6512,329.9000 L259.9980,386.5936"/></g><g style="stroke: #000000;fill:none;stroke-width: 0.99628;stroke-linejoin:miter;stroke-linecap:butt;stroke-miterlimit: 10;" id="p75_s41027"><path d="M220.3126,329.9000 L299.6833,329.9000"/></g><g style="stroke: #000000;fill:none;stroke-width: 0.99628;stroke-linejoin:miter;stroke-linecap:butt;stroke-miterlimit: 10;" id="p75_s41028"><path d="M259.9980,409.2707 L259.9980,250.5293"/></g><g style="stroke: #000000;fill:none;stroke-width: 0.99628;stroke-linejoin:miter;stroke-linecap:butt;stroke-miterlimit: 10;" id="p75_s41029"><path d="M225.9819,341.2386 L265.6673,261.8678"/></g><g style="stroke: #000000;fill:none;stroke-width: 0.99628;stroke-linejoin:miter;stroke-linecap:butt;stroke-miterlimit: 10;" id="p75_s41030"><path d="M254.3287,261.8678 L294.0141,341.2386"/></g><g style="fill: #000000;fill-opacity: 1;" id="p75_s41031"><path d="M233.6437,329.9000 C233.6437,328.7996 232.7516,327.9075 231.6512,327.9075 C230.5507,327.9075 229.6587,328.7996 229.6587,329.9000 C229.6587,331.0004 230.5507,331.8925 231.6512,331.8925 C232.7516,331.8925 233.6437,331.0004 233.6437,329.9000 Z"/></g><g style="stroke: #000000;fill:none;stroke-width: 0.3985;stroke-linejoin:miter;stroke-linecap:butt;stroke-miterlimit: 10;" id="p75_s41032"><path d="M233.6437,329.9000 C233.6437,328.7996 232.7516,327.9075 231.6512,327.9075 C230.5507,327.9075 229.6587,328.7996 229.6587,329.9000 C229.6587,331.0004 230.5507,331.8925 231.6512,331.8925 C232.7516,331.8925 233.6437,331.0004 233.6437,329.9000 Z"/></g><g style="fill: #000000;fill-opacity: 1;" id="p75_s41033"><path d="M261.9905,329.9000 C261.9905,328.7996 261.0984,327.9075 259.9980,327.9075 C258.8976,327.9075 258.0055,328.7996 258.0055,329.9000 C258.0055,331.0004 258.8976,331.8925 259.9980,331.8925 C261.0984,331.8925 261.9905,331.0004 261.9905,329.9000 Z"/></g><g style="stroke: #000000;fill:none;stroke-width: 0.3985;stroke-linejoin:miter;stroke-linecap:butt;stroke-miterlimit: 10;" id="p75_s41034"><path d="M261.9905,329.9000 C261.9905,328.7996 261.0984,327.9075 259.9980,327.9075 C258.8976,327.9075 258.0055,328.7996 258.0055,329.9000 C258.0055,331.0004 258.8976,331.8925 259.9980,331.8925 C261.0984,331.8925 261.9905,331.0004 261.9905,329.9000 Z"/></g><g style="fill: #000000;fill-opacity: 1;" id="p75_s41035"><path d="M261.9905,386.5936 C261.9905,385.4932 261.0984,384.6011 259.9980,384.6011 C258.8976,384.6011 258.0055,385.4932 258.0055,386.5936 C258.0055,387.6941 258.8976,388.5861 259.9980,388.5861 C261.0984,388.5861 261.9905,387.6941 261.9905,386.5936 Z"/></g><g style="stroke: #000000;fill:none;stroke-width: 0.3985;stroke-linejoin:miter;stroke-linecap:butt;stroke-miterlimit: 10;" id="p75_s41036"><path d="M261.9905,386.5936 C261.9905,385.4932 261.0984,384.6011 259.9980,384.6011 C258.8976,384.6011 258.0055,385.4932 258.0055,386.5936 C258.0055,387.6941 258.8976,388.5861 259.9980,388.5861 C261.0984,388.5861 261.9905,387.6941 261.9905,386.5936 Z"/></g><g style="fill: #000000;fill-opacity: 1;" id="p75_s41037"><path d="M261.9905,273.2064 C261.9905,272.1060 261.0984,271.2139 259.9980,271.2139 C258.8976,271.2139 258.0055,272.1060 258.0055,273.2064 C258.0055,274.3068 258.8976,275.1989 259.9980,275.1989 C261.0984,275.1989 261.9905,274.3068 261.9905,273.2064 Z"/></g><g style="stroke: #000000;fill:none;stroke-width: 0.3985;stroke-linejoin:miter;stroke-linecap:butt;stroke-miterlimit: 10;" id="p75_s41038"><path d="M261.9905,273.2064 C261.9905,272.1060 261.0984,271.2139 259.9980,271.2139 C258.8976,271.2139 258.0055,272.1060 258.0055,273.2064 C258.0055,274.3068 258.8976,275.1989 259.9980,275.1989 C261.0984,275.1989 261.9905,274.3068 261.9905,273.2064 Z"/></g><g style="fill: #000000;fill-opacity: 1;" id="p75_s41039"><path d="M290.3373,329.9000 C290.3373,328.7996 289.4452,327.9075 288.3448,327.9075 C287.2444,327.9075 286.3523,328.7996 286.3523,329.9000 C286.3523,331.0004 287.2444,331.8925 288.3448,331.8925 C289.4452,331.8925 290.3373,331.0004 290.3373,329.9000 Z"/></g><g style="stroke: #000000;fill:none;stroke-width: 0.3985;stroke-linejoin:miter;stroke-linecap:butt;stroke-miterlimit: 10;" id="p75_s41040"><path d="M290.3373,329.9000 C290.3373,328.7996 289.4452,327.9075 288.3448,327.9075 C287.2444,327.9075 286.3523,328.7996 286.3523,329.9000 C286.3523,331.0004 287.2444,331.8925 288.3448,331.8925 C289.4452,331.8925 290.3373,331.0004 290.3373,329.9000 Z"/></g><g style="fill: #FF9898;fill-opacity: 1;" id="p75_s41049"><path d="M337.3300,397.9310 L348.6685,397.9310 C348.6685,404.1932 343.5922,409.2695 337.3300,409.2695 C335.3402,409.2695 333.3839,408.7453 331.6607,407.7505"/></g><g style="stroke: #FF0000;fill:none;stroke-width: 0.3985;stroke-linejoin:miter;stroke-linecap:butt;stroke-miterlimit: 10;" id="p75_s41050"><path d="M337.3300,397.9310 L348.6685,397.9310 C348.6685,404.1932 343.5922,409.2695 337.3300,409.2695 C335.3402,409.2695 333.3839,408.7453 331.6607,407.7505"/></g><g style="stroke: #00FF00;fill:none;stroke-width: 0.3985;stroke-linejoin:miter;stroke-linecap:butt;stroke-miterlimit: 10;" id="p75_s41051"><path d="M355.5519,361.5276 C361.9257,364.7082 369.4278,364.7082 375.8017,361.5276"/></g><g style="fill: #CBFFCB;fill-opacity: 1;" id="p75_s41052"><path d="M365.6768,341.2374 L355.5519,361.5276 C361.9257,364.7082 369.4278,364.7082 375.8017,361.5276 L365.6768,341.2374 Z"/></g><g style="stroke: #000000;fill:none;stroke-width: 0.99628;stroke-linejoin:miter;stroke-linecap:butt;stroke-miterlimit: 10;" id="p75_s41055"><path d="M325.9914,397.9310 L405.3622,397.9310"/></g><g style="stroke: #000000;fill:none;stroke-width: 0.99628;stroke-linejoin:miter;stroke-linecap:butt;stroke-miterlimit: 10;" id="p75_s41056"><path d="M331.6607,409.2695 L371.3461,329.8988"/></g><g style="stroke: #000000;fill:none;stroke-width: 0.99628;stroke-linejoin:miter;stroke-linecap:butt;stroke-miterlimit: 10;" id="p75_s41057"><path d="M399.6929,409.2695 L360.0075,329.8988"/></g><g style="fill: #000000;fill-opacity: 1;" id="p75_s41058"><path d="M396.0161,397.9310 C396.0161,396.8306 395.1241,395.9385 394.0236,395.9385 C392.9232,395.9385 392.0311,396.8306 392.0311,397.9310 C392.0311,399.0314 392.9232,399.9235 394.0236,399.9235 C395.1241,399.9235 396.0161,399.0314 396.0161,397.9310 Z"/></g><g style="stroke: #000000;fill:none;stroke-width: 0.3985;stroke-linejoin:miter;stroke-linecap:butt;stroke-miterlimit: 10;" id="p75_s41059"><path d="M396.0161,397.9310 C396.0161,396.8306 395.1241,395.9385 394.0236,395.9385 C392.9232,395.9385 392.0311,396.8306 392.0311,397.9310 C392.0311,399.0314 392.9232,399.9235 394.0236,399.9235 C395.1241,399.9235 396.0161,399.0314 396.0161,397.9310 Z"/></g><g style="fill: #000000;fill-opacity: 1;" id="p75_s41060"><path d="M339.3225,397.9310 C339.3225,396.8306 338.4304,395.9385 337.3300,395.9385 C336.2296,395.9385 335.3375,396.8306 335.3375,397.9310 C335.3375,399.0314 336.2296,399.9235 337.3300,399.9235 C338.4304,399.9235 339.3225,399.0314 339.3225,397.9310 Z"/></g><g style="stroke: #000000;fill:none;stroke-width: 0.3985;stroke-linejoin:miter;stroke-linecap:butt;stroke-miterlimit: 10;" id="p75_s41061"><path d="M339.3225,397.9310 C339.3225,396.8306 338.4304,395.9385 337.3300,395.9385 C336.2296,395.9385 335.3375,396.8306 335.3375,397.9310 C335.3375,399.0314 336.2296,399.9235 337.3300,399.9235 C338.4304,399.9235 339.3225,399.0314 339.3225,397.9310 Z"/></g><g style="fill: #000000;fill-opacity: 1;" id="p75_s41062"><path d="M367.6693,341.2374 C367.6693,340.1369 366.7772,339.2449 365.6768,339.2449 C364.5764,339.2449 363.6843,340.1369 363.6843,341.2374 C363.6843,342.3378 364.5764,343.2299 365.6768,343.2299 C366.7772,343.2299 367.6693,342.3378 367.6693,341.2374 Z"/></g><g style="stroke: #000000;fill:none;stroke-width: 0.3985;stroke-linejoin:miter;stroke-linecap:butt;stroke-miterlimit: 10;" id="p75_s41063"><path d="M367.6693,341.2374 C367.6693,340.1369 366.7772,339.2449 365.6768,339.2449 C364.5764,339.2449 363.6843,340.1369 363.6843,341.2374 C363.6843,342.3378 364.5764,343.2299 365.6768,343.2299 C366.7772,343.2299 367.6693,342.3378 367.6693,341.2374 Z"/></g><g style="stroke: #000000;fill:none;stroke-width: 0.398;stroke-linejoin:miter;stroke-linecap:butt;stroke-miterlimit: 10;" id="p75_s41215"><path d="M90.1420,577.6670 L539.1500,577.6670"/></g><g style="stroke: #000000;fill:none;stroke-width: 0.398;stroke-linejoin:miter;stroke-linecap:butt;stroke-miterlimit: 10;" id="p75_s41216"><path d="M90.3410,671.6540 L90.3410,577.6670"/></g><g style="stroke: #000000;fill:none;stroke-width: 0.398;stroke-linejoin:miter;stroke-linecap:butt;stroke-miterlimit: 10;" id="p75_s41217"><path d="M538.9500,671.6540 L538.9500,577.6670"/></g><g style="stroke: #000000;fill:none;stroke-width: 0.398;stroke-linejoin:miter;stroke-linecap:butt;stroke-miterlimit: 10;" id="p75_s41218"><path d="M90.1420,671.6540 L539.1500,671.6540"/></g></svg>
